# xmcd
#
# Track frame offsets: 
#        150
#        17580
#        32745
#        52027
#        73100
#        90377
#        108240
#        130332
#        151765
#        166512
#        191320
#        207802
#        229180
#        252597
#        280382
#
# Disc length: 3990 seconds
#
# Revision: 1
# Processed by: cddbd v1.5.2PL0 Copyright (c) Steve Scherf et al.
# Submitted via: ExactAudioCopy v1.1
#
DISCID=c20f940f
DTITLE=Hale, Terry Lee - Tender loving hell:The best of 
DYEAR=2004
DGENRE=Folk
TTITLE0=City life
TTITLE1=Cheyenne
TTITLE2=The ballad of Molly and Shelly
TTITLE3=Blue room
TTITLE4=Dakota
TTITLE5=Forget about love
TTITLE6=Control
TTITLE7=Land of plenty
TTITLE8=Rainer's song
TTITLE9=Michigan weather
TTITLE10=Ride hard
TTITLE11=If you want
TTITLE12=Backroads
TTITLE13=Texas rose
TTITLE14=Withered bouquet
EXTD=
EXTT0=
EXTT1=
EXTT2=
EXTT3=
EXTT4=
EXTT5=
EXTT6=
EXTT7=
EXTT8=
EXTT9=
EXTT10=
EXTT11=
EXTT12=
EXTT13=
EXTT14=
PLAYORDER=
